<svg width="91" height="28" viewBox="0 0 91 28" fill="none" xmlns="http://www.w3.org/2000/svg">
<path d="M6.12 26.224C5.272 26.224 4.424 26.168 3.576 26.056C2.728 25.96 2.008 25.808 1.416 25.6V23.584C2.056 23.792 2.792 23.952 3.624 24.064C4.456 24.176 5.248 24.232 6 24.232C7.152 24.232 7.992 24.168 8.52 24.04C9.048 23.912 9.312 23.624 9.312 23.176C9.312 22.84 9.184 22.6 8.928 22.456C8.672 22.328 8.184 22.264 7.464 22.264H4.392C2.328 22.264 1.296 21.536 1.296 20.08C1.296 19.616 1.432 19.184 1.704 18.784C1.976 18.384 2.408 18.08 3 17.872C2.344 17.552 1.856 17.112 1.536 16.552C1.232 15.992 1.08 15.32 1.08 14.536C1.08 13.08 1.512 12.024 2.376 11.368C3.256 10.712 4.568 10.384 6.312 10.384C6.68 10.384 7.064 10.416 7.464 10.48C7.864 10.528 8.176 10.576 8.4 10.624H12.576L12.504 12.328H10.584C10.888 12.584 11.112 12.904 11.256 13.288C11.4 13.672 11.472 14.088 11.472 14.536C11.472 15.752 11.104 16.712 10.368 17.416C9.632 18.104 8.52 18.448 7.032 18.448C6.776 18.448 6.536 18.44 6.312 18.424C6.104 18.392 5.872 18.36 5.616 18.328C5.136 18.376 4.704 18.504 4.32 18.712C3.936 18.92 3.744 19.2 3.744 19.552C3.744 19.792 3.84 19.968 4.032 20.08C4.224 20.176 4.544 20.224 4.992 20.224H8.184C9.32 20.224 10.192 20.472 10.8 20.968C11.424 21.448 11.736 22.152 11.736 23.08C11.736 24.2 11.248 25 10.272 25.48C9.312 25.976 7.928 26.224 6.12 26.224ZM6.312 16.792C7.352 16.792 8.072 16.616 8.472 16.264C8.888 15.912 9.096 15.312 9.096 14.464C9.096 13.616 8.888 13 8.472 12.616C8.072 12.232 7.352 12.04 6.312 12.04C5.336 12.04 4.624 12.224 4.176 12.592C3.728 12.96 3.504 13.584 3.504 14.464C3.504 15.28 3.712 15.872 4.128 16.24C4.56 16.608 5.288 16.792 6.312 16.792ZM14.1917 22V10.624H16.5917L16.7357 11.944C17.2797 11.592 17.9277 11.272 18.6797 10.984C19.4317 10.696 20.1757 10.496 20.9117 10.384V12.376C20.4637 12.456 19.9757 12.576 19.4477 12.736C18.9357 12.88 18.4477 13.048 17.9837 13.24C17.5197 13.416 17.1277 13.6 16.8077 13.792V22H14.1917ZM26.9207 22.24C25.5607 22.24 24.5127 21.864 23.7767 21.112C23.0567 20.36 22.6967 19.256 22.6967 17.8V10.624H25.3127V17.8C25.3127 18.648 25.5207 19.272 25.9367 19.672C26.3527 20.072 26.9927 20.272 27.8567 20.272C28.4967 20.272 29.0887 20.152 29.6327 19.912C30.1767 19.672 30.6487 19.352 31.0487 18.952V10.624H33.6407V22H31.2647L31.1447 20.824C30.6327 21.224 30.0247 21.56 29.3207 21.832C28.6167 22.104 27.8167 22.24 26.9207 22.24ZM36.6917 27.184V10.624H38.9477L39.0917 11.752C39.6037 11.288 40.1637 10.944 40.7717 10.72C41.3797 10.496 42.0997 10.384 42.9317 10.384C44.5637 10.384 45.8357 10.832 46.7477 11.728C47.6597 12.608 48.1157 14.072 48.1157 16.12C48.1157 18.168 47.6437 19.704 46.6997 20.728C45.7557 21.736 44.4677 22.24 42.8357 22.24C41.4597 22.24 40.2837 21.92 39.3077 21.28V27.184H36.6917ZM42.1637 20.272C44.3717 20.272 45.4757 18.88 45.4757 16.096C45.4757 14.752 45.2277 13.8 44.7317 13.24C44.2357 12.664 43.4037 12.376 42.2357 12.376C41.0677 12.376 40.0917 12.776 39.3077 13.576V19.264C39.6757 19.568 40.0837 19.816 40.5317 20.008C40.9957 20.184 41.5397 20.272 42.1637 20.272ZM56.1084 22.24C54.0604 22.24 52.5564 21.728 51.5964 20.704C50.6524 19.68 50.1804 18.216 50.1804 16.312C50.1804 14.408 50.6604 12.944 51.6204 11.92C52.5804 10.896 54.0764 10.384 56.1084 10.384C58.1564 10.384 59.6604 10.896 60.6204 11.92C61.5804 12.944 62.0604 14.408 62.0604 16.312C62.0604 18.216 61.5804 19.68 60.6204 20.704C59.6764 21.728 58.1724 22.24 56.1084 22.24ZM56.1084 20.032C57.3084 20.032 58.1564 19.744 58.6524 19.168C59.1644 18.576 59.4204 17.624 59.4204 16.312C59.4204 15 59.1644 14.056 58.6524 13.48C58.1564 12.904 57.3084 12.616 56.1084 12.616C54.9244 12.616 54.0764 12.904 53.5644 13.48C53.0684 14.056 52.8204 15 52.8204 16.312C52.8204 17.624 53.0684 18.576 53.5644 19.168C54.0764 19.744 54.9244 20.032 56.1084 20.032Z" fill="black"/>
<path d="M81.4219 14.9062C81.4219 13.5729 81.0104 12.5417 80.1875 11.8125C79.3646 11.0833 78.276 10.7188 76.9219 10.7188C75.776 10.7188 74.7917 11.1146 73.9688 11.9062C73.1458 12.6979 72.7344 13.6458 72.7344 14.75C72.7344 15.375 72.8177 15.9375 72.9844 16.4375C73.151 16.9271 73.375 17.3385 73.6562 17.6719C73.9479 17.9948 74.2917 18.2656 74.6875 18.4844C75.0833 18.6927 75.4948 18.8438 75.9219 18.9375C76.3594 19.0312 76.8229 19.0781 77.3125 19.0781C78.5 19.0781 79.5833 18.7865 80.5625 18.2031V19.3281C79.5521 19.8594 78.4635 20.125 77.2969 20.125C76.5469 20.125 75.8385 20.026 75.1719 19.8281C74.5156 19.6198 73.9167 19.3125 73.375 18.9062C72.8333 18.4896 72.401 17.9271 72.0781 17.2188C71.7656 16.5 71.6094 15.6771 71.6094 14.75C71.6094 13.3125 72.1146 12.0938 73.125 11.0938C74.1354 10.0938 75.401 9.59375 76.9219 9.59375C78.599 9.59375 79.9531 10.0677 80.9844 11.0156C82.026 11.9531 82.5469 13.25 82.5469 14.9062V26H81.4219V14.9062ZM84.7969 14.9062V26H83.6719V14.9062C83.6719 12.9375 83.0417 11.375 81.7812 10.2188C80.5208 9.05208 78.901 8.46875 76.9219 8.46875C75.0885 8.46875 73.5573 9.07812 72.3281 10.2969C71.099 11.5156 70.4844 13 70.4844 14.75C70.4844 15.8125 70.6667 16.7656 71.0312 17.6094C71.4062 18.4531 71.9115 19.1302 72.5469 19.6406C73.1823 20.151 73.8906 20.5417 74.6719 20.8125C75.4635 21.0729 76.2969 21.2031 77.1719 21.2031C78.3594 21.2031 79.4896 20.9271 80.5625 20.375V21.5625C79.4375 22.0312 78.3021 22.2656 77.1562 22.2656C76.125 22.2656 75.1458 22.1094 74.2188 21.7969C73.2917 21.474 72.4635 21.0104 71.7344 20.4062C71.0052 19.7917 70.4271 19 70 18.0312C69.5729 17.0521 69.3594 15.9583 69.3594 14.75C69.3594 12.6979 70.0833 10.9531 71.5312 9.51562C72.9896 8.06771 74.7865 7.34375 76.9219 7.34375C78.4219 7.34375 79.7656 7.65104 80.9531 8.26562C82.1406 8.86979 83.0781 9.75 83.7656 10.9062C84.4531 12.0625 84.7969 13.3958 84.7969 14.9062ZM87.0469 14.9062V26H85.9219V14.9062C85.9219 13.1875 85.526 11.6667 84.7344 10.3438C83.9531 9.01042 82.8802 7.98958 81.5156 7.28125C80.151 6.57292 78.6198 6.21875 76.9219 6.21875C75.3073 6.21875 73.8333 6.60417 72.5 7.375C71.1667 8.13542 70.1198 9.16667 69.3594 10.4688C68.6094 11.7708 68.2344 13.1979 68.2344 14.75C68.2344 16.0833 68.4792 17.3021 68.9688 18.4062C69.4583 19.5 70.1146 20.401 70.9375 21.1094C71.7708 21.8177 72.7135 22.3698 73.7656 22.7656C74.8281 23.151 75.9375 23.3438 77.0938 23.3438C78.2708 23.3438 79.4271 23.099 80.5625 22.6094V23.75C79.375 24.1979 78.2083 24.4219 77.0625 24.4219C75.2604 24.4219 73.6042 24.0156 72.0938 23.2031C70.5833 22.3906 69.375 21.2396 68.4688 19.75C67.5625 18.2604 67.1094 16.5938 67.1094 14.75C67.1094 13.4375 67.3594 12.1875 67.8594 11C68.3698 9.8125 69.0573 8.78646 69.9219 7.92188C70.7865 7.05729 71.8281 6.36979 73.0469 5.85938C74.2656 5.34896 75.5573 5.09375 76.9219 5.09375C78.8281 5.09375 80.5469 5.5 82.0781 6.3125C83.6198 7.125 84.8333 8.28125 85.7188 9.78125C86.6042 11.2812 87.0469 12.9896 87.0469 14.9062ZM89.2969 14.9062V26H88.1719V14.9062C88.1719 12.7812 87.6771 10.8854 86.6875 9.21875C85.6979 7.54167 84.349 6.25 82.6406 5.34375C80.9323 4.42708 79.026 3.96875 76.9219 3.96875C74.901 3.96875 73.0521 4.45312 71.375 5.42188C69.6979 6.39062 68.3802 7.70312 67.4219 9.35938C66.4635 11.0052 65.9844 12.8021 65.9844 14.75C65.9844 16.0312 66.1875 17.25 66.5938 18.4062C67.0104 19.5521 67.5729 20.5573 68.2812 21.4219C69 22.276 69.8229 23.0156 70.75 23.6406C71.6875 24.2656 72.6927 24.7396 73.7656 25.0625C74.849 25.3854 75.9479 25.5469 77.0625 25.5469C78.2917 25.5469 79.4583 25.3125 80.5625 24.8438V26C79.4062 26.4062 78.2188 26.6094 77 26.6094C75.7396 26.6094 74.5104 26.4323 73.3125 26.0781C72.125 25.724 71.0208 25.2031 70 24.5156C68.9896 23.8177 68.099 23 67.3281 22.0625C66.5573 21.1146 65.9531 20.0104 65.5156 18.75C65.0781 17.4896 64.8594 16.1562 64.8594 14.75C64.8594 13.1354 65.1615 11.599 65.7656 10.1406C66.3802 8.67188 67.2135 7.40625 68.2656 6.34375C69.3281 5.27083 70.6094 4.42188 72.1094 3.79688C73.6198 3.16146 75.224 2.84375 76.9219 2.84375C78.651 2.84375 80.276 3.13542 81.7969 3.71875C83.3177 4.30208 84.6302 5.11458 85.7344 6.15625C86.8385 7.1875 87.7083 8.45833 88.3438 9.96875C88.9792 11.4792 89.2969 13.125 89.2969 14.9062Z" fill="black"/>
</svg>
